<?xml version="1.0" encoding="utf-8"?>
<!-- Generator: Adobe Illustrator 17.1.0, SVG Export Plug-In . SVG Version: 6.00 Build 0)  -->
<!DOCTYPE svg PUBLIC "-//W3C//DTD SVG 1.1//EN" "http://www.w3.org/Graphics/SVG/1.1/DTD/svg11.dtd">
<svg version="1.1" id="图层_1" xmlns="http://www.w3.org/2000/svg" xmlns:xlink="http://www.w3.org/1999/xlink" x="0px" y="0px"
	 viewBox="0 0 60 60" enable-background="new 0 0 60 60" xml:space="preserve">
<path fill="none" stroke="#FFFFFF" stroke-width="2" stroke-miterlimit="10" d="M33.7,37.1c-1,0.5-2.1,0.8-3.3,0.8
	c-4.3,0-7.8-3.5-7.8-7.8c0-4.3,3.5-7.8,7.8-7.8c4.3,0,7.8,3.5,7.8,7.8c0,1-0.2,2-0.6,2.9"/>
<path fill="none" stroke="#FFFFFF" stroke-width="2" stroke-miterlimit="10" d="M58,24c-3.8,0.9-7.8-0.7-9.8-4.2
	c-2-3.5-1.4-7.8,1.3-10.6c-3-2.7-6.6-4.8-10.6-6.1c-1.1,3.7-4.5,6.4-8.6,6.4c-4.1,0-7.5-2.7-8.6-6.4c-4,1.3-7.6,3.4-10.6,6.1
	c2.7,2.8,3.3,7.1,1.3,10.6c-2,3.5-6.1,5.1-9.8,4.2c-0.4,2-0.7,4-0.7,6.1c0,2.1,0.2,4.1,0.7,6.1c3.7-0.9,7.8,0.7,9.8,4.2
	c2,3.5,1.4,7.8-1.3,10.6c3,2.7,6.6,4.8,10.6,6.1c1.1-3.7,4.5-6.4,8.6-6.4c4.1,0,7.5,2.7,8.6,6.4c4-1.3,7.6-3.4,10.6-6.1
	c-2.7-2.8-3.3-7.1-1.3-10.6c2-3.5,6.1-5.1,9.8-4.2c0.4-2,0.7-4,0.7-6.1C58.7,28,58.5,25.9,58,24z"/>
<path fill="none" stroke="#FFFFFF" stroke-width="2" stroke-miterlimit="10" d="M57.8,24c-3.7,0.7-7.5-0.9-9.5-4.4
	c-2-3.5-1.5-7.7,1-10.5c-3-2.7-6.5-4.8-10.4-6.1c-1.2,3.6-4.6,6.1-8.5,6.1c-4,0-7.3-2.6-8.5-6.1c-3.9,1.3-7.4,3.3-10.4,6.1
	c2.4,2.9,3,7.1,1,10.5c-2,3.5-5.9,5.1-9.5,4.4c-0.4,1.9-0.6,4-0.6,6c0,2.1,0.2,4.1,0.6,6c3.7-0.7,7.6,0.9,9.5,4.4
	c2,3.5,1.5,7.7-1,10.5c2.9,2.7,6.5,4.8,10.4,6.1c1.2-3.6,4.6-6.1,8.5-6.1c4,0,7.3,2.6,8.5,6.1c3.9-1.3,7.4-3.3,10.4-6.1
	c-2.4-2.9-3-7.1-1-10.5c2-3.5,5.9-5.1,9.5-4.4c0.4-2,0.6-4,0.6-6C58.4,28,58.2,26,57.8,24z"/>
</svg>
