<?xml version="1.0" standalone="no"?><!DOCTYPE svg PUBLIC "-//W3C//DTD SVG 1.1//EN" "http://www.w3.org/Graphics/SVG/1.1/DTD/svg11.dtd"><svg t="1635956458278" class="icon" viewBox="0 0 1024 1024" version="1.1" xmlns="http://www.w3.org/2000/svg" p-id="14001" width="64" height="64" xmlns:xlink="http://www.w3.org/1999/xlink"><defs><style type="text/css"></style></defs><path d="M774.4 1024c-154.92 0-236.8-81.9-236.8-236.86 0-172.59 67.55-223.3 184.23-252.56 14.51-3.64 37.22-11.55 52.57-17.1 15.36 5.55 38.07 13.46 52.57 17.1 116.68 29.26 184.23 79.97 184.23 252.56 0 154.96-81.88 236.86-236.8 236.86z" fill="#25467A" p-id="14002"></path><path d="M486.42 38.89C457.66 29.61 396.8 0 396.8 0s-60.86 29.61-89.62 38.89C138.33 93.39 12.8 192.81 12.8 544.4c0 351.6 171.92 479.6 384 479.6s384-128 384-479.6c0-351.59-125.53-451.01-294.38-505.51z" fill="#25467A" p-id="14003"></path><path d="M396.8 972.8C179.08 972.8 64 824.66 64 544.41c0-312.16 94.93-403.87 258.91-456.79 20.39-6.58 52.31-20.89 73.89-30.93 21.58 10.04 53.5 24.35 73.88 30.93C634.67 140.54 729.6 232.25 729.6 544.41c0 280.25-115.08 428.39-332.8 428.39z" fill="#FF806C" p-id="14004"></path><path d="M396.8 972.8c-150.73 0-230.4-148.14-230.4-428.39 0-312.16 65.72-403.87 179.25-456.79 14.11-6.58 36.21-20.89 51.15-30.93 14.94 10.04 37.04 24.35 51.15 30.93C561.48 140.54 627.2 232.25 627.2 544.41c0 280.25-79.67 428.39-230.4 428.39z" fill="#FF696C" p-id="14005"></path><path d="M396.8 972.8C262.82 972.8 192 824.66 192 544.41c0-312.16 58.42-403.87 159.33-456.79 12.55-6.58 32.19-20.89 45.47-30.93 13.28 10.04 32.92 24.35 45.47 30.93C543.18 140.54 601.6 232.25 601.6 544.41c0 280.25-70.82 428.39-204.8 428.39z" fill="#FF806C" p-id="14006"></path><path d="M396.8 972.8c-66.99 0-102.4-148.14-102.4-428.39 0-312.16 29.21-403.87 79.67-456.79 6.27-6.58 16.09-20.89 22.73-30.93 6.64 10.04 16.46 24.35 22.73 30.93 50.46 52.93 79.67 144.64 79.67 456.79 0 280.25-35.41 428.39-102.4 428.39z" fill="#FF696C" p-id="14007"></path><path d="M396.8 972.8c-50.24 0-76.8-148.14-76.8-428.39 0-312.16 21.91-403.87 59.75-456.79 4.7-6.58 12.07-20.89 17.05-30.93 4.98 10.04 12.35 24.35 17.05 30.93 37.84 52.93 59.75 144.64 59.75 456.79 0 280.25-26.56 428.39-76.8 428.39z" fill="#FF806C" p-id="14008"></path><path d="M774.4 998.4c-140.14 0-211.2-71.08-211.2-211.26 0-157.56 55.52-200.31 164.86-227.73 9.18-2.3 21.96-6.27 37.98-11.81l8.36-2.89 8.36 2.89c16.04 5.54 28.81 9.51 37.97 11.81 109.34 27.43 164.86 70.18 164.86 227.73 0.01 140.19-71.05 211.26-211.19 211.26z" fill="#25467A" p-id="14009"></path><path d="M774.4 972.8c-126.62 0-185.6-58.99-185.6-185.66 0-142.39 44.88-177.67 145.48-202.9 9.92-2.49 23.38-6.66 40.12-12.45 16.74 5.79 30.19 9.96 40.11 12.45C915.12 609.47 960 644.76 960 787.14c0 126.67-58.97 185.66-185.6 185.66z" fill="#FDF2CE" p-id="14010"></path><path d="M396.8 550.4c-35.29 0-64-28.71-64-64 0-7.07 5.73-12.8 12.8-12.8s12.8 5.73 12.8 12.8c0 21.18 17.23 38.4 38.4 38.4 21.18 0 38.4-17.22 38.4-38.4 0-7.07 5.73-12.8 12.8-12.8s12.8 5.73 12.8 12.8c0 35.29-28.71 64-64 64z" fill="#25467A" p-id="14011"></path><path d="M268.8 384m-38.4 0a38.4 38.4 0 1 0 76.8 0 38.4 38.4 0 1 0-76.8 0Z" fill="#25467A" p-id="14012"></path><path d="M524.8 384m-38.4 0a38.4 38.4 0 1 0 76.8 0 38.4 38.4 0 1 0-76.8 0Z" fill="#25467A" p-id="14013"></path><path d="M217.6 448h-51.2c-14.14 0-25.6 11.46-25.6 25.6s11.46 25.6 25.6 25.6h51.2c14.14 0 25.6-11.46 25.6-25.6S231.74 448 217.6 448zM627.2 448H576c-14.14 0-25.6 11.46-25.6 25.6s11.46 25.6 25.6 25.6h51.2c14.14 0 25.6-11.46 25.6-25.6S641.34 448 627.2 448z" fill="#FCCEC7" p-id="14014"></path><path d="M774.4 947.2c-14.14 0-25.6-11.46-25.6-25.6V627.2c0-14.14 11.46-25.6 25.6-25.6s25.6 11.46 25.6 25.6v294.4c0 14.14-11.46 25.6-25.6 25.6z" fill="#F0DEB1" p-id="14015"></path></svg>