<svg t="1609387163573" class="icon" viewBox="0 0 1472 1024" version="1.1" xmlns="http://www.w3.org/2000/svg" p-id="9090" width="200" height="200"><path d="M57.726956 57.726956m115.453912 0l1039.085208 0q115.453912 0 115.453912 115.453912l0 577.26956q0 115.453912-115.453912 115.453912l-1039.085208 0q-115.453912 0-115.453912-115.453912l0-577.26956q0-115.453912 115.453912-115.453912Z" fill="#d81e06" p-id="9091" data-spm-anchor-id="a313x.7781069.0.i0" class="selected"></path><path d="M115.453912 115.453912m115.453912 0l923.631296 0q115.453912 0 115.453912 115.453912l0 461.815648q0 115.453912-115.453912 115.453912l-923.631296 0q-115.453912 0-115.453912-115.453912l0-461.815648q0-115.453912 115.453912-115.453912Z" fill="#d81e06" p-id="9092" data-spm-anchor-id="a313x.7781069.0.i1" class=""></path><path d="M613.291181 540.555216l-23.494871 27.420304-34.289812-11.545391 19.627165 29.844836-23.437144 27.420304 35.559804-8.543589 20.319889 29.844836v-35.328897l36.194801-9.120859-34.289811-12.815384 3.809979-37.17616zM750.450428 466.260624h-36.829798l-11.429937-31.749826-11.429937 34.174358h-36.829798l29.844836 20.723977-11.429937 34.058904 29.844836-21.301247 29.844836 21.358974-11.429937-34.116631 29.844836-23.148509z m-60.324669-130.462921l5.714969 37.811156 17.144906-31.692099 36.829798 5.484061-26.669854-24.938045 17.144906-31.749826-31.749826 13.450381-26.034857-24.995772 5.714969 35.386624-33.019819 15.817186 34.924808 5.484061zM613.926177 173.180868l-23.494871 27.420304-34.924808-13.392654 20.319888 30.422106-24.129867 26.843035 36.194801-8.54359 19.627165 29.844836v-35.328897l37.522521-8.543589-34.289811-13.392654 3.174982-35.328897zM355.424868 329.736373L320.50006 226.866937l-34.924809 102.927163H173.180868L263.98537 393.12057l-34.924809 102.349893 91.439499-60.901938 90.804502 60.901938L376.379753 393.12057l91.497225-60.901938-112.45211-2.482259z" fill="#FFD700" p-id="9093"></path></svg>